<svg width="39" height="39" viewBox="0 0 39 39" fill="none" xmlns="http://www.w3.org/2000/svg">
<circle cx="19.5" cy="19.5" r="19.5" fill="#FCE500"/>
<g clip-path="url(#clip0_101_36)">
<path d="M28.0147 15.9859C27.9748 15.0793 27.8282 14.456 27.6181 13.916C27.4015 13.3427 27.0682 12.8294 26.6315 12.4027C26.2048 11.9694 25.6882 11.6327 25.1215 11.4195C24.5783 11.2094 23.9583 11.0628 23.0517 11.0229C22.1383 10.9795 21.8484 10.9695 19.5318 10.9695C17.2153 10.9695 16.9253 10.9795 16.0153 11.0195C15.1088 11.0595 14.4855 11.2062 13.9455 11.4161C13.3721 11.6327 12.8589 11.966 12.4322 12.4027C11.9989 12.8294 11.6623 13.3461 11.4489 13.9127C11.2389 14.456 11.0923 15.0759 11.0523 15.9825C11.009 16.8959 10.9989 17.1858 10.9989 19.5024C10.9989 21.819 11.009 22.1089 11.0489 23.0189C11.0889 23.9255 11.2356 24.5488 11.4457 25.0888C11.6623 25.6621 11.9989 26.1754 12.4322 26.6021C12.8589 27.0354 13.3755 27.3721 13.9421 27.5853C14.4855 27.7954 15.1054 27.942 16.0121 27.9819C16.9219 28.022 17.212 28.0319 19.5286 28.0319C21.8451 28.0319 22.1351 28.022 23.0451 27.9819C23.9517 27.942 24.5749 27.7954 25.1149 27.5853C26.2616 27.142 27.1682 26.2354 27.6115 25.0888C27.8214 24.5455 27.9681 23.9255 28.0081 23.0189C28.0481 22.1089 28.0581 21.819 28.0581 19.5024C28.0581 17.1858 28.0547 16.8959 28.0147 15.9859ZM26.4782 22.9522C26.4415 23.7855 26.3015 24.2355 26.1849 24.5355C25.8982 25.2788 25.3082 25.8688 24.5649 26.1555C24.2649 26.2721 23.8117 26.4121 22.9817 26.4487C22.0817 26.4888 21.8118 26.4987 19.5352 26.4987C17.2586 26.4987 16.9853 26.4888 16.0887 26.4487C15.2554 26.4121 14.8054 26.2721 14.5054 26.1555C14.1355 26.0187 13.7988 25.8021 13.5255 25.5188C13.2422 25.2421 13.0255 24.9088 12.8888 24.5389C12.7722 24.2389 12.6322 23.7855 12.5956 22.9556C12.5555 22.0557 12.5456 21.7856 12.5456 19.509C12.5456 17.2325 12.5555 16.9592 12.5956 16.0626C12.6322 15.2293 12.7722 14.7793 12.8888 14.4793C13.0255 14.1093 13.2422 13.7727 13.5289 13.4993C13.8054 13.216 14.1387 12.9993 14.5088 12.8627C14.8088 12.7461 15.2621 12.6061 16.092 12.5694C16.992 12.5294 17.262 12.5194 19.5385 12.5194C21.8184 12.5194 22.0883 12.5294 22.985 12.5694C23.8183 12.6061 24.2683 12.7461 24.5683 12.8627C24.9382 12.9993 25.2749 13.216 25.5482 13.4993C25.8315 13.776 26.0482 14.1093 26.1849 14.4793C26.3015 14.7793 26.4415 15.2326 26.4782 16.0626C26.5182 16.9625 26.5282 17.2325 26.5282 19.509C26.5282 21.7856 26.5182 22.0523 26.4782 22.9522Z" fill="#040413"/>
<path d="M19.5316 15.1199C17.1118 15.1199 15.1485 17.0831 15.1485 19.503C15.1485 21.9229 17.1118 23.8861 19.5316 23.8861C21.9515 23.8861 23.9147 21.9229 23.9147 19.503C23.9147 17.0831 21.9515 15.1199 19.5316 15.1199ZM19.5316 22.3462C17.9617 22.3462 16.6884 21.073 16.6884 19.503C16.6884 17.933 17.9617 16.6598 19.5316 16.6598C21.1015 16.6598 22.3748 17.933 22.3748 19.503C22.3748 21.073 21.1015 22.3462 19.5316 22.3462Z" fill="#040413"/>
<path d="M25.1105 14.9456C25.1105 15.5107 24.6524 15.9689 24.0871 15.9689C23.5221 15.9689 23.0639 15.5107 23.0639 14.9456C23.0639 14.3804 23.5221 13.9224 24.0871 13.9224C24.6524 13.9224 25.1105 14.3804 25.1105 14.9456Z" fill="#040413"/>
</g>
<defs>
<clipPath id="clip0_101_36">
<rect width="17.0625" height="17.0625" fill="white" transform="translate(10.9686 10.969)"/>
</clipPath>
</defs>
</svg>
