<svg width="269" height="307" viewBox="0 0 269 307" fill="none" xmlns="http://www.w3.org/2000/svg">
<g opacity="0.2">
<path d="M20.3544 96.3173L55.7327 75.8915L91.1111 96.3173V137.169L55.7327 157.594L20.3544 137.169V96.3173Z" stroke="#FCE500" stroke-width="7"/>
<path d="M103.948 96.3173L139.326 75.8915L174.705 96.3173V137.169L139.326 157.594L103.948 137.169V96.3173Z" stroke="#FCE500" stroke-width="7"/>
<path d="M61.3504 24.4672L96.7288 4.04145L132.107 24.4672V65.3186L96.7288 85.7444L61.3504 65.3186V24.4672Z" fill="#FCE500" stroke="#FCE500" stroke-width="7"/>
<path d="M61.3504 168.915L96.7288 148.489L132.107 168.915V209.766L96.7288 230.192L61.3504 209.766V168.915Z" stroke="#FCE500" stroke-width="7"/>
<path d="M17.0909 241.215L52.4693 220.789L87.8477 241.215V282.066L52.4693 302.492L17.0909 282.066V241.215Z" stroke="#FCE500" stroke-width="7"/>
<path d="M187.862 96.1037L223.241 75.6779L258.619 96.1037V136.955L223.241 157.381L187.862 136.955V96.1037Z" stroke="#FCE500" stroke-width="7"/>
<path d="M-24.4855 168.915L10.8929 148.489L46.2713 168.915V209.766L10.8929 230.192L-24.4855 209.766V168.915Z" fill="#FCE500" stroke="#FCE500" stroke-width="7"/>
</g>
</svg>
