<svg width="209" height="382" viewBox="0 0 209 382" fill="none" xmlns="http://www.w3.org/2000/svg">
<g opacity="0.2">
<path d="M66.8697 119.523L111.816 93.5737L156.762 119.523V171.423L111.816 197.373L66.8697 171.423V119.523Z" stroke="#FCE500" stroke-width="7"/>
<path d="M171.036 119.523L215.982 93.5737L260.928 119.523V171.423L215.982 197.373L171.036 171.423V119.523Z" stroke="#FCE500" stroke-width="7"/>
<path d="M117.954 29.9912L162.9 4.04145L207.846 29.9912V81.8906L162.9 107.84L117.954 81.8906V29.9912Z" fill="#FCE500" stroke="#FCE500" stroke-width="7"/>
<path d="M117.954 209.987L162.9 184.037L207.846 209.987V261.886L162.9 287.836L117.954 261.886V209.987Z" stroke="#FCE500" stroke-width="7"/>
<path d="M62.8033 300.08L107.75 274.13L152.696 300.08V351.979L107.75 377.929L62.8033 351.979V300.08Z" stroke="#FCE500" stroke-width="7"/>
<path d="M10.9947 209.987L55.9409 184.037L100.887 209.987V261.886L55.9409 287.836L10.9947 261.886V209.987Z" fill="#FCE500" stroke="#FCE500" stroke-width="7"/>
</g>
</svg>
