<svg width="108" height="244" viewBox="0 0 108 244" fill="none" xmlns="http://www.w3.org/2000/svg">
<g opacity="0.2">
<path d="M44.1081 77.0806L71.5552 61.234L99.0024 77.0806V108.774L71.5552 124.62L44.1081 108.774V77.0806Z" stroke="#FCE500" stroke-width="7"/>
<path d="M110.649 77.0806L138.096 61.234L165.543 77.0806V108.774L138.096 124.62L110.649 108.774V77.0806Z" stroke="#FCE500" stroke-width="7"/>
<path d="M76.7409 19.8881L104.188 4.04145L131.635 19.8881V51.5813L104.188 67.4279L76.7409 51.5813V19.8881Z" fill="#FCE500" stroke="#FCE500" stroke-width="7"/>
<path d="M76.7409 134.868L104.188 119.021L131.635 134.868V166.561L104.188 182.408L76.7409 166.561V134.868Z" stroke="#FCE500" stroke-width="7"/>
<path d="M41.5124 192.419L68.9595 176.572L96.4067 192.419V224.112L68.9595 239.959L41.5124 224.112V192.419Z" stroke="#FCE500" stroke-width="7"/>
<path d="M8.41669 134.868L35.8638 119.021L63.311 134.868V166.561L35.8638 182.408L8.41669 166.561V134.868Z" fill="#FCE500" stroke="#FCE500" stroke-width="7"/>
</g>
</svg>
