<svg width="151" height="345" viewBox="0 0 151 345" fill="none" xmlns="http://www.w3.org/2000/svg">
<g opacity="0.2">
<path d="M89.3108 108.15L49.0536 84.9079L8.79639 108.15V154.635L49.0536 177.878L89.3108 154.635V108.15Z" stroke="#FCE500" stroke-width="7"/>
<path d="M43.1702 27.284L2.91298 4.04145L-37.3442 27.284V73.769L2.91298 97.0115L43.1702 73.769V27.284Z" fill="#FCE500" stroke="#FCE500" stroke-width="7"/>
<path d="M43.1702 189.858L2.91298 166.615L-37.3442 189.858V236.343L2.91298 259.585L43.1702 236.343V189.858Z" stroke="#FCE500" stroke-width="7"/>
<path d="M92.9846 271.231L52.7274 247.988L12.4702 271.231V317.716L52.7274 340.959L92.9846 317.716V271.231Z" stroke="#FCE500" stroke-width="7"/>
<path d="M139.778 189.858L99.5204 166.615L59.2632 189.858V236.343L99.5204 259.585L139.778 236.343V189.858Z" fill="#FCE500" stroke="#FCE500" stroke-width="7"/>
</g>
</svg>
