<svg width="39" height="39" viewBox="0 0 39 39" fill="none" xmlns="http://www.w3.org/2000/svg">
<circle cx="19.5" cy="19.5" r="19.5" fill="#FCE500"/>
<path d="M23.6002 13.82C23.6002 13.82 24.1102 14.32 23.6002 13.82C22.9166 13.0396 22.5399 12.0374 22.5402 11H19.4502V23.4C19.4263 24.071 19.143 24.7066 18.6599 25.1729C18.1768 25.6393 17.5316 25.8999 16.8602 25.9C15.4402 25.9 14.2602 24.74 14.2602 23.3C14.2602 21.58 15.9202 20.29 17.6302 20.82V17.66C14.1802 17.2 11.1602 19.88 11.1602 23.3C11.1602 26.63 13.9202 29 16.8502 29C19.9902 29 22.5402 26.45 22.5402 23.3V17.01C23.7932 17.9099 25.2975 18.3926 26.8402 18.39V15.3C26.8402 15.3 24.9602 15.39 23.6002 13.82Z" fill="black"/>
</svg>
